<svg width="255" height="401" viewBox="0 0 255 401" fill="none" xmlns="http://www.w3.org/2000/svg">
<path d="M136.8 109.7C163.7 81.9996 162.5 37.6996 134.3 11.4996C134.3 11.4996 124.6 2.49961 122 0.0996094C112.9 21.3996 106 47.0996 88.1 69.8996C73.3 88.7996 57.7 107 39.3 122.5C15.9 142 -0.4 164.3 5.58794e-08 196.2C0.2 210.7 4.1 225.1 11.2 237.8C18.6 250.9 30.4 261.3 40 272.8L26.7 284.8L100.4 298.2L94.8 223.4L84 233.1L76.3 224.1C62.8 208.3 63.6 184.9 78 170.1L136.7 109.7H136.8Z" fill="#33897E"/>
<path d="M117.5 291C90.6 318.7 91.8 363 120 389.2C120 389.2 129.7 398.2 132.3 400.6C141.4 379.3 148.3 353.6 166.2 330.8C181 311.9 196.6 293.7 215 278.2C238.3 258.6 254.7 236.3 254.3 204.4C254.1 189.9 250.2 175.5 243.1 162.8C235.7 149.7 223.9 139.3 214.3 127.8L227.6 115.8L153.9 102.4L159.5 177.2L170.3 167.5L178 176.5C191.5 192.3 190.7 215.7 176.3 230.5L117.6 290.9L117.5 291Z" fill="#33897E"/>
</svg>
